<svg width="283.59589728999197" height="321.5515625" viewBox="0 0 312.5 354.3241077937698" xmlns="http://www.w3.org/2000/svg">
    <g
       transform="matrix(6.3004009968354175,0,0,6.3004009968354175,0.0000465790022993947,0.02629628142169196)"
       fill="#0749fc">
        <path d="M23.11 55.78L1.69 43.41A3.39 3.39 0 0 1 0 40.48V15.75a3.39 3.39 0 0 1 1.69-2.94L23.11.45a3.39 3.39 0 0 1 3.39 0l21.41 12.37a3.39 3.39 0 0 1 1.69 2.94v24.72a3.39 3.39 0 0 1-1.69 2.94L26.5 55.78a3.39 3.39 0 0 1-3.39 0z" />
    </g>
    <g transform="matrix(0.22291374827073135,0,0,0.22291374827073135,106,88)" fill="#3befd1">
        <g>
            <path d="M20.94,116.987v226.137c0,6.075,4.942,11.018,11.018,11.018h63.139V105.97H31.958   C25.883,105.97,20.94,110.912,20.94,116.987z"/>
            <path d="M427.664,343.124V116.987c0-6.075-4.942-11.018-11.018-11.018H314.558v248.172h102.088   C422.722,354.142,427.664,349.199,427.664,343.124z"/>
            <path d="M306.558,26.947c0-10.834,4.956-20.532,12.719-26.947H130.044c-14.859,0-26.947,12.089-26.947,26.947v327.194h203.461   V26.947z M281.198,316.156H128.457c-2.209,0-4-1.791-4-4s1.791-4,4-4h152.742c2.209,0,4,1.791,4,4S283.407,316.156,281.198,316.156   z M281.198,260.679H128.457c-2.209,0-4-1.791-4-4s1.791-4,4-4h152.742c2.209,0,4,1.791,4,4S283.407,260.679,281.198,260.679z    M281.198,208.134H128.457c-2.209,0-4-1.791-4-4s1.791-4,4-4h152.742c2.209,0,4,1.791,4,4S283.407,208.134,281.198,208.134z    M281.198,155.588H128.457c-2.209,0-4-1.791-4-4s1.791-4,4-4h152.742c2.209,0,4,1.791,4,4S283.407,155.588,281.198,155.588z    M281.198,103.043H128.457c-2.209,0-4-1.791-4-4s1.791-4,4-4h152.742c2.209,0,4,1.791,4,4S283.407,103.043,281.198,103.043z    M281.198,50.497H128.457c-2.209,0-4-1.791-4-4s1.791-4,4-4h152.742c2.209,0,4,1.791,4,4S283.407,50.497,281.198,50.497z"/>
            <path d="M314.558,58.711h64.202c-6.324-5.698-10.307-13.945-10.307-23.107v-8.656C368.453,12.089,356.364,0,341.505,0   s-26.947,12.089-26.947,26.947V58.711z"/>
            <path d="M399.56,58.711c12.741,0,23.107-10.366,23.107-23.107v-10.85h-46.282l0.068,10.85   C376.453,48.345,386.818,58.711,399.56,58.711z"/>
            <path d="M307.087,469.872h-165.57c-8.59,0-15.579,6.988-15.579,15.579V488h196.729v-2.549   C322.667,476.86,315.678,469.872,307.087,469.872z"/>
            <path d="M424.715,85.582H314.558V97.97h102.088c10.486,0,19.018,8.531,19.018,19.018v226.137c0,10.486-8.531,19.018-19.018,19.018   H31.958c-10.486,0-19.018-8.531-19.018-19.018V116.987c0-10.486,8.531-19.018,19.018-19.018h63.139V85.582H23.889   C10.717,85.582,0,96.299,0,109.472v263.155h448.604V109.472C448.604,96.299,437.888,85.582,424.715,85.582z"/>
            <rect x="185.974" y="438.017" width="76.657" height="23.855"/>
            <path d="M0,395.78c0,18.878,15.358,34.236,34.236,34.236h380.132c18.878,0,34.236-15.358,34.236-34.236v-15.153H0V395.78z    M224.302,389.574c8.299,0,15.051,6.752,15.051,15.052c0,8.299-6.752,15.051-15.051,15.051s-15.051-6.752-15.051-15.051   C209.251,396.326,216.003,389.574,224.302,389.574z"/>
            <path d="M224.302,411.677c3.888,0,7.051-3.163,7.051-7.051c0-3.889-3.163-7.052-7.051-7.052s-7.051,3.163-7.051,7.052   C217.251,408.514,220.414,411.677,224.302,411.677z"/>
        </g>
    </g>
    <g
       transform="matrix(1.6017564182012576,0,0,1.6017564182012576,54.59189465205804,200.98243581798744)"
       fill="#f9f5e0">
        <path d="M19.59 12.012 l0 4.4922 l-6.8359 0 l0 23.496 l-5.0195 0 l0 -23.496 l-6.8555 0 l0 -4.4922 l18.711 0 z M28.24215 23.457 c0.97656 -1.875 3.5547 -3.457 6.4063 -3.4766 l0 4.4141 c-4.082 0 -6.1914 1.3867 -6.1914 5.6641 l0 9.9414 l-4.9023 0 l0 -19.785 l4.6875 0 l0 3.2422 z M53.769125 34.4531 c0 2.7539 0.23438 4.1406 0.50781 5.0195 l0 0.52734 l-4.6289 0 l-0.46875 -2.2266 c-1.5039 1.8359 -4.0234 2.6172 -6.3477 2.6172 c-3.1445 0 -6.0938 -1.4648 -6.0938 -5.4883 c0 -4.082 2.9883 -5.4688 7.207 -6.3477 l3.3008 -0.68359 c1.3477 -0.29297 1.8555 -0.80078 1.8555 -1.6602 c0 -2.2266 -1.875 -2.9297 -3.6523 -2.9297 c-2.1094 0 -3.75 0.87891 -4.1016 3.2031 l-4.3359 -0.82031 c0.78125 -3.9648 3.7305 -5.8203 8.6914 -5.8203 c3.9648 0 8.0664 1.3281 8.0664 7.0508 l0 7.5586 z M44.335925 37.0117 c3.0469 0 5 -1.8945 5 -6.2891 l-4.8047 1.2305 c-1.8945 0.41016 -3.125 1.0547 -3.125 2.6172 c0 1.6602 1.3086 2.4414 2.9297 2.4414 z M68.3204375 40.37109 c-6.0352 0 -10.371 -4.1211 -10.371 -10.293 c0 -6.1523 4.3359 -10.254 10.371 -10.254 c4.8047 0 8.457 2.5391 9.4922 7.0313 l-4.5117 0.54688 c-0.72266 -2.4609 -2.5781 -3.6914 -5.0195 -3.6914 c-3.2031 0 -5.4688 2.5391 -5.4688 6.3672 c0 3.8477 2.2656 6.3672 5.4688 6.3672 c2.4414 0 4.2969 -1.2305 5.0195 -3.6914 l4.5117 0.54688 c-1.0352 4.5117 -4.7852 7.0703 -9.4922 7.0703 z M95.0975 40 l-6.6992 -8.5742 l-1.3281 0 l0 8.5742 l-4.9219 0 l0 -30 l4.9219 0 l0 17.949 l1.1914 0 l6.4258 -7.7344 l5.5664 0 l-7.8516 9.1406 l8.6914 10.645 l-5.9961 0 z M106.77730625 16.699 c-1.6016 0 -2.9297 -1.3086 -2.9297 -2.9102 c0 -1.6211 1.3281 -2.9102 2.9297 -2.9102 c1.5625 0 2.9102 1.2891 2.9102 2.9102 c0 1.6016 -1.3477 2.9102 -2.9102 2.9102 z M104.27730625 40 l0 -19.785 l4.9023 0 l0 19.785 l-4.9023 0 z M122.382625 40 c-3.6523 0 -5.8008 -2.1484 -5.8008 -5.918 l0 -10.098 l-3.9258 0 l0 -3.7695 l1.3281 0 c2.0703 0 3.1055 -0.82031 3.1055 -3.5352 l0 -2.9102 l4.4336 0 l0 6.4453 l4.2188 0 l0 3.7695 l-4.2188 0 l0 9.5703 c0 1.8359 0.95703 2.6953 2.4414 2.6953 l1.7773 0 l0 3.75 l-3.3594 0 z"/>
    </g>
</svg>